<?xml version="1.0" encoding="utf-8"?>
<!-- Generator: Adobe Illustrator 18.0.0, SVG Export Plug-In . SVG Version: 6.00 Build 0)  -->
<!DOCTYPE svg PUBLIC "-//W3C//DTD SVG 1.1//EN" "http://www.w3.org/Graphics/SVG/1.1/DTD/svg11.dtd">
<svg version="1.1" id="レイヤー_1" xmlns="http://www.w3.org/2000/svg" xmlns:xlink="http://www.w3.org/1999/xlink" x="0px"
	 y="0px" viewBox="0 0 44.5 9.6" enable-background="new 0 0 44.5 9.6" xml:space="preserve">
<g>
	<path d="M0,9.5l3.6-9.3h1.3l3.8,9.3H7.3L6.2,6.7H2.3l-1,2.8H0z M2.7,5.6h3.2l-1-2.6C4.6,2.3,4.4,1.6,4.2,1.1
		C4.1,1.7,3.9,2.3,3.7,2.9L2.7,5.6z"/>
	<path d="M9.6,9.5V0.2h3.5c0.7,0,1.3,0.1,1.7,0.3c0.4,0.2,0.8,0.5,1,0.9c0.2,0.4,0.4,0.8,0.4,1.2c0,0.4-0.1,0.8-0.3,1.1
		s-0.5,0.6-1,0.9c0.6,0.2,1,0.4,1.3,0.8c0.3,0.4,0.5,0.9,0.5,1.4c0,0.4-0.1,0.8-0.3,1.2c-0.2,0.4-0.4,0.7-0.7,0.9s-0.6,0.4-1,0.5
		c-0.4,0.1-0.9,0.2-1.5,0.2H9.6z M10.9,4.1h2c0.5,0,0.9,0,1.2-0.1c0.3-0.1,0.5-0.2,0.7-0.5C14.9,3.3,15,3,15,2.7
		c0-0.3-0.1-0.6-0.2-0.8c-0.1-0.2-0.4-0.4-0.6-0.5c-0.3-0.1-0.7-0.1-1.4-0.1h-1.9V4.1z M10.9,8.4h2.3c0.4,0,0.7,0,0.8,0
		c0.3-0.1,0.5-0.1,0.7-0.3s0.3-0.3,0.5-0.5c0.1-0.2,0.2-0.5,0.2-0.8c0-0.3-0.1-0.6-0.3-0.9c-0.2-0.3-0.4-0.4-0.7-0.5
		c-0.3-0.1-0.8-0.2-1.4-0.2h-2.2V8.4z"/>
	<path d="M18,4.9c0-1.5,0.4-2.8,1.2-3.6C20.1,0.4,21.1,0,22.4,0c0.9,0,1.6,0.2,2.3,0.6s1.2,1,1.6,1.7c0.4,0.7,0.5,1.6,0.5,2.5
		c0,0.9-0.2,1.8-0.6,2.5s-0.9,1.3-1.6,1.7c-0.7,0.4-1.5,0.6-2.3,0.6c-0.9,0-1.7-0.2-2.3-0.6s-1.2-1-1.6-1.7S18,5.8,18,4.9z M19.3,5
		c0,1.1,0.3,2,0.9,2.6c0.6,0.6,1.4,1,2.3,1c0.9,0,1.7-0.3,2.3-1c0.6-0.7,0.9-1.6,0.9-2.8c0-0.8-0.1-1.4-0.4-2
		c-0.3-0.6-0.6-1-1.1-1.3c-0.5-0.3-1-0.5-1.7-0.5c-0.9,0-1.6,0.3-2.2,0.9C19.6,2.6,19.3,3.6,19.3,5z"/>
	<path d="M34.6,0.2h1.2v5.4c0,0.9-0.1,1.7-0.3,2.2s-0.6,1-1.1,1.3c-0.6,0.3-1.3,0.5-2.2,0.5c-0.9,0-1.6-0.2-2.1-0.5s-1-0.7-1.2-1.3
		c-0.2-0.6-0.4-1.3-0.4-2.3V0.2h1.2v5.4c0,0.8,0.1,1.4,0.2,1.8c0.2,0.4,0.4,0.7,0.8,0.9c0.4,0.2,0.8,0.3,1.3,0.3
		c0.9,0,1.6-0.2,1.9-0.6s0.6-1.2,0.6-2.4V0.2z"/>
	<path d="M40.2,9.5V1.3h-3.1V0.2h7.4v1.1h-3.1v8.2H40.2z"/>
</g>
</svg>
