<?xml version="1.0" encoding="utf-8"?>
<!-- Generator: Adobe Illustrator 18.0.0, SVG Export Plug-In . SVG Version: 6.00 Build 0)  -->
<!DOCTYPE svg PUBLIC "-//W3C//DTD SVG 1.1//EN" "http://www.w3.org/Graphics/SVG/1.1/DTD/svg11.dtd">
<svg version="1.1" id="レイヤー_1" xmlns="http://www.w3.org/2000/svg" xmlns:xlink="http://www.w3.org/1999/xlink" x="0px"
	 y="0px" viewBox="0 0 100.1 7.4" enable-background="new 0 0 100.1 7.4" xml:space="preserve">
<g>
	<path d="M3.7,0C4.4,0,5,0.2,5.6,0.5S6.6,1.3,7,1.9s0.5,1.2,0.5,1.9C7.5,4.4,7.3,5,7,5.6S6.2,6.7,5.6,7S4.4,7.5,3.7,7.5
		S2.5,7.3,1.9,7S0.8,6.2,0.5,5.6S0,4.4,0,3.7c0-0.7,0.2-1.3,0.5-1.9s0.8-1.1,1.4-1.4S3.1,0,3.7,0z M3.7,0.7c-0.5,0-1,0.1-1.5,0.4
		S1.4,1.7,1.1,2.2s-0.4,1-0.4,1.5c0,0.5,0.1,1,0.4,1.5s0.6,0.8,1.1,1.1s1,0.4,1.5,0.4s1-0.1,1.5-0.4s0.8-0.6,1.1-1.1s0.4-1,0.4-1.5
		c0-0.5-0.1-1-0.4-1.5S5.7,1.4,5.2,1.1S4.3,0.7,3.7,0.7z M4.6,4.3l0.8,0.3C5.3,5,5.1,5.3,4.8,5.5s-0.6,0.3-1,0.3
		c-0.6,0-1-0.2-1.4-0.5S1.9,4.4,1.9,3.8C1.9,3.4,2,3,2.1,2.7s0.4-0.6,0.7-0.7s0.6-0.2,1-0.2c0.4,0,0.7,0.1,1,0.3s0.5,0.5,0.6,0.9
		L4.6,3C4.6,2.8,4.4,2.6,4.3,2.5S4,2.4,3.8,2.4C3.5,2.4,3.2,2.5,3,2.7s-0.3,0.6-0.3,1s0.1,0.8,0.3,1s0.4,0.3,0.7,0.3
		c0.2,0,0.4-0.1,0.6-0.2S4.6,4.6,4.6,4.3z"/>
	<path d="M16.7,4.7l1.4,0.4c-0.2,0.8-0.6,1.4-1.1,1.7s-1.1,0.6-1.9,0.6c-1,0-1.7-0.3-2.3-1s-0.9-1.5-0.9-2.7c0-1.2,0.3-2.1,0.9-2.8
		s1.4-1,2.4-1c0.9,0,1.6,0.3,2.1,0.8c0.3,0.3,0.6,0.7,0.7,1.3l-1.4,0.3c-0.1-0.4-0.3-0.7-0.5-0.9s-0.6-0.3-1-0.3
		c-0.5,0-1,0.2-1.3,0.6s-0.5,1-0.5,1.9c0,0.9,0.2,1.5,0.5,1.9s0.7,0.6,1.3,0.6c0.4,0,0.7-0.1,1-0.4S16.6,5.2,16.7,4.7z"/>
	<path d="M26.4,7.3h-1.6l-0.6-1.6h-2.9l-0.6,1.6h-1.5L22,0.1h1.5L26.4,7.3z M23.7,4.5l-1-2.7l-1,2.7H23.7z"/>
	<path d="M31.1,4.7V3.5h3.1v2.9c-0.3,0.3-0.7,0.6-1.3,0.8s-1.2,0.3-1.7,0.3c-0.7,0-1.4-0.2-2-0.5s-1-0.8-1.3-1.3s-0.4-1.2-0.4-1.9
		c0-0.7,0.2-1.4,0.5-2s0.8-1,1.4-1.3c0.5-0.2,1-0.4,1.7-0.4c0.9,0,1.6,0.2,2.1,0.6s0.8,0.9,1,1.5l-1.4,0.3c-0.1-0.4-0.3-0.6-0.6-0.8
		s-0.6-0.3-1-0.3c-0.6,0-1.1,0.2-1.5,0.6S29,2.9,29,3.6c0,0.8,0.2,1.5,0.6,1.9s0.9,0.6,1.5,0.6c0.3,0,0.6-0.1,0.9-0.2
		s0.6-0.3,0.8-0.4V4.7H31.1z"/>
	<path d="M36.1,7.3V0.1h5.3v1.2h-3.9v1.6h3.6v1.2h-3.6v1.9h4v1.2H36.1z"/>
	<path d="M50.1,4.7V3.5h3.1v2.9c-0.3,0.3-0.7,0.6-1.3,0.8c-0.6,0.2-1.2,0.3-1.7,0.3c-0.7,0-1.4-0.2-2-0.5s-1-0.8-1.3-1.3
		s-0.4-1.2-0.4-1.9c0-0.7,0.2-1.4,0.5-2s0.8-1,1.4-1.3c0.5-0.2,1-0.4,1.7-0.4c0.9,0,1.6,0.2,2.1,0.6c0.5,0.4,0.8,0.9,1,1.5l-1.4,0.3
		c-0.1-0.4-0.3-0.6-0.6-0.8c-0.3-0.2-0.6-0.3-1-0.3c-0.6,0-1.1,0.2-1.5,0.6c-0.4,0.4-0.6,1-0.6,1.8c0,0.8,0.2,1.5,0.6,1.9
		s0.9,0.6,1.5,0.6c0.3,0,0.6-0.1,0.9-0.2c0.3-0.1,0.6-0.3,0.8-0.4V4.7H50.1z"/>
	<path d="M61.6,7.3H60l-0.6-1.6h-2.9L56,7.3h-1.5l2.8-7.2h1.5L61.6,7.3z M59,4.5l-1-2.7l-1,2.7H59z"/>
	<path d="M63,7.3V0.2h1.4v5.9h3.6v1.2H63z"/>
	<path d="M69.7,7.3V0.2h1.4v5.9h3.6v1.2H69.7z"/>
	<path d="M76.4,7.3V0.1h5.3v1.2h-3.9v1.6h3.6v1.2h-3.6v1.9h4v1.2H76.4z"/>
	<path d="M83.7,7.3V0.1h3c0.8,0,1.3,0.1,1.7,0.2C88.7,0.5,89,0.7,89.2,1s0.3,0.7,0.3,1.1c0,0.5-0.2,1-0.5,1.3s-0.8,0.6-1.4,0.7
		c0.3,0.2,0.6,0.4,0.8,0.6c0.2,0.2,0.5,0.6,0.8,1.2l0.9,1.4h-1.7l-1-1.6c-0.4-0.6-0.6-0.9-0.8-1.1s-0.3-0.2-0.4-0.3
		s-0.4-0.1-0.7-0.1h-0.3v3H83.7z M85.1,3.2h1.1c0.7,0,1.1,0,1.3-0.1s0.3-0.2,0.4-0.3S88,2.5,88,2.2C88,2,88,1.8,87.9,1.7
		c-0.1-0.1-0.3-0.2-0.5-0.3c-0.1,0-0.5,0-1.1,0h-1.1V3.2z"/>
	<path d="M93.4,7.3v-3l-2.6-4.1h1.7L94.1,3l1.7-2.8h1.7l-2.6,4.2v3H93.4z"/>
	<path d="M98.8,7.3V5.9h1.4v1.4H98.8z"/>
</g>
</svg>
