<?xml version="1.0" encoding="utf-8"?>
<!-- Generator: Adobe Illustrator 18.0.0, SVG Export Plug-In . SVG Version: 6.00 Build 0)  -->
<!DOCTYPE svg PUBLIC "-//W3C//DTD SVG 1.1//EN" "http://www.w3.org/Graphics/SVG/1.1/DTD/svg11.dtd">
<svg version="1.1" id="レイヤー_1" xmlns="http://www.w3.org/2000/svg" xmlns:xlink="http://www.w3.org/1999/xlink" x="0px"
	 y="0px" viewBox="0 0 75.1 9.6" enable-background="new 0 0 75.1 9.6" xml:space="preserve">
<g>
	<path d="M0,9.5V0.2h1.2v9.3H0z"/>
	<path d="M3.4,9.5V0.2h1.3l4.9,7.3V0.2h1.2v9.3H9.5L4.6,2.2v7.3H3.4z"/>
	<path d="M12.4,6.5l1.2-0.1c0.1,0.5,0.2,0.8,0.4,1.1c0.2,0.3,0.5,0.5,0.9,0.7c0.4,0.2,0.9,0.3,1.4,0.3c0.5,0,0.9-0.1,1.2-0.2
		s0.6-0.3,0.8-0.6c0.2-0.2,0.3-0.5,0.3-0.8c0-0.3-0.1-0.5-0.3-0.8c-0.2-0.2-0.4-0.4-0.8-0.5c-0.2-0.1-0.8-0.2-1.7-0.5
		C15,5,14.4,4.8,14,4.6c-0.4-0.2-0.8-0.5-1-0.9c-0.2-0.3-0.3-0.7-0.3-1.2c0-0.5,0.1-0.9,0.4-1.3c0.3-0.4,0.7-0.7,1.2-0.9
		S15.4,0,16,0c0.7,0,1.3,0.1,1.8,0.3c0.5,0.2,0.9,0.5,1.2,1s0.4,0.9,0.5,1.5l-1.2,0.1c-0.1-0.6-0.3-1-0.6-1.3
		c-0.4-0.3-0.9-0.5-1.6-0.5c-0.7,0-1.3,0.1-1.6,0.4c-0.3,0.3-0.5,0.6-0.5,1c0,0.3,0.1,0.6,0.4,0.8c0.2,0.2,0.9,0.4,1.9,0.7
		c1,0.2,1.7,0.4,2.1,0.6c0.5,0.2,0.9,0.6,1.2,0.9c0.3,0.4,0.4,0.8,0.4,1.3c0,0.5-0.1,1-0.4,1.4c-0.3,0.4-0.7,0.8-1.2,1
		c-0.5,0.2-1.1,0.4-1.8,0.4c-0.8,0-1.5-0.1-2.1-0.4c-0.6-0.2-1-0.6-1.3-1.1C12.6,7.7,12.4,7.1,12.4,6.5z"/>
	<path d="M23.8,9.5V1.3h-3.1V0.2h7.4v1.1h-3.1v8.2H23.8z"/>
	<path d="M28.4,9.5L32,0.2h1.3l3.8,9.3h-1.4l-1.1-2.8h-3.9l-1,2.8H28.4z M31.1,5.6h3.2l-1-2.6c-0.3-0.8-0.5-1.4-0.7-1.9
		c-0.1,0.6-0.3,1.2-0.5,1.8L31.1,5.6z"/>
	<path d="M42.4,5.8V4.7l3.9,0v3.5c-0.6,0.5-1.2,0.8-1.9,1.1c-0.6,0.2-1.3,0.4-2,0.4c-0.9,0-1.7-0.2-2.5-0.6c-0.7-0.4-1.3-1-1.7-1.7
		s-0.6-1.6-0.6-2.5c0-0.9,0.2-1.8,0.6-2.5C38.7,1.5,39.3,1,40,0.6S41.5,0,42.4,0c0.7,0,1.3,0.1,1.8,0.3c0.5,0.2,1,0.5,1.3,0.9
		s0.5,0.9,0.7,1.5l-1.1,0.3c-0.1-0.5-0.3-0.8-0.5-1.1s-0.5-0.5-0.9-0.7c-0.4-0.2-0.8-0.2-1.3-0.2c-0.6,0-1,0.1-1.5,0.3
		c-0.4,0.2-0.7,0.4-1,0.7c-0.3,0.3-0.4,0.6-0.6,0.9C39.2,3.5,39,4.1,39,4.8c0,0.8,0.1,1.5,0.4,2.1c0.3,0.6,0.7,1,1.2,1.2
		s1.1,0.4,1.7,0.4c0.5,0,1.1-0.1,1.6-0.3c0.5-0.2,0.9-0.4,1.2-0.7V5.8H42.4z"/>
	<path d="M48.2,9.5V0.2h4.1c0.8,0,1.5,0.1,1.9,0.3c0.4,0.2,0.8,0.5,1,0.9s0.4,0.9,0.4,1.4c0,0.7-0.2,1.2-0.6,1.7s-1.1,0.7-2,0.9
		c0.3,0.2,0.6,0.3,0.7,0.5c0.4,0.3,0.7,0.7,1,1.2l1.6,2.5h-1.5l-1.2-1.9c-0.4-0.6-0.7-1-0.9-1.3c-0.2-0.3-0.4-0.5-0.6-0.6
		c-0.2-0.1-0.4-0.2-0.6-0.2c-0.1,0-0.4,0-0.7,0h-1.4v4.1H48.2z M49.4,4.3h2.6c0.6,0,1-0.1,1.3-0.2C53.7,4,54,3.8,54.1,3.5
		c0.2-0.3,0.2-0.5,0.2-0.8c0-0.4-0.2-0.8-0.5-1.1s-0.8-0.4-1.5-0.4h-2.9V4.3z"/>
	<path d="M56.6,9.5l3.6-9.3h1.3l3.8,9.3h-1.4l-1.1-2.8h-3.9l-1,2.8H56.6z M59.2,5.6h3.2l-1-2.6c-0.3-0.8-0.5-1.4-0.7-1.9
		c-0.1,0.6-0.3,1.2-0.5,1.8L59.2,5.6z"/>
	<path d="M66.2,9.5V0.2h1.9l2.2,6.6c0.2,0.6,0.4,1.1,0.4,1.4c0.1-0.3,0.3-0.8,0.5-1.5l2.2-6.5h1.7v9.3h-1.2V1.7l-2.7,7.8h-1.1
		l-2.7-7.9v7.9H66.2z"/>
</g>
</svg>
