<?xml version="1.0" encoding="utf-8"?>
<!-- Generator: Adobe Illustrator 18.0.0, SVG Export Plug-In . SVG Version: 6.00 Build 0)  -->
<!DOCTYPE svg PUBLIC "-//W3C//DTD SVG 1.1//EN" "http://www.w3.org/Graphics/SVG/1.1/DTD/svg11.dtd">
<svg version="1.1" id="レイヤー_1" xmlns="http://www.w3.org/2000/svg" xmlns:xlink="http://www.w3.org/1999/xlink" x="0px"
	 y="0px" viewBox="0 0 100 50" enable-background="new 0 0 100 50" xml:space="preserve">
<g>
	<g>
		<g>
			<g>
				<path d="M33.1,49.5h-2.5l-5.3-13.2l-5.5,13.2h-2.5l7-16.2h2L33.1,49.5z"/>
			</g>
		</g>
		<g>
			<path d="M9,49.5c-1.2,0-2.4-0.2-3.4-0.6c-1-0.4-1.9-1-2.7-1.7s-1.3-1.6-1.8-2.6c-0.4-1-0.6-2.1-0.6-3.3S0.7,39,1.2,38
				c0.4-1,1.1-1.9,1.8-2.6c0.8-0.7,1.7-1.3,2.7-1.6c1-0.4,2.1-0.6,3.3-0.6c1,0,2.1,0.2,3,0.5c1,0.3,1.8,0.8,2.6,1.6l0.1,0.1
				l-1.6,1.7L13,37c-0.5-0.5-1.1-1-1.9-1.2c-1.6-0.6-3.3-0.5-4.7,0c-0.7,0.3-1.4,0.7-1.9,1.3c-0.5,0.5-1,1.2-1.3,1.9
				s-0.5,1.6-0.5,2.5s0.2,1.7,0.5,2.4s0.7,1.4,1.3,1.9c0.5,0.5,1.2,1,2,1.3c1.3,0.5,2.8,0.6,4.5,0.2c0.6-0.1,1.2-0.3,1.8-0.6v-4.4
				H15V48h-0.1C14,48.6,13,48.9,12,49.2C11,49.4,10,49.5,9,49.5z"/>
		</g>
		<g>
			<path d="M45.3,49.5h-8.8V33.3h2.2v14.1h6.6V49.5z"/>
		</g>
		<g>
			<path d="M57.4,49.5h-8.8V33.3h2.2v14.1h6.6V49.5z"/>
		</g>
		<g>
			<path d="M85,49.5h-2.7l-4.2-7.1H76v7.1h-2.2V33.3H78c0.8,0,1.5,0,2.3,0.1s1.4,0.3,2,0.6s1.1,0.8,1.5,1.4c0.4,0.6,0.6,1.4,0.6,2.4
				c0,1.2-0.4,2.2-1.1,2.9s-1.6,1.2-2.7,1.4L85,49.5z M76,40.3h1.5c0.5,0,1,0,1.6,0c0.5,0,1-0.1,1.5-0.3c0.4-0.2,0.8-0.4,1.1-0.7
				c0.3-0.3,0.4-0.8,0.4-1.4c0-0.5-0.1-1-0.3-1.3c-0.2-0.3-0.5-0.6-0.8-0.7c-0.3-0.2-0.7-0.3-1.2-0.4c-0.4-0.1-0.9-0.1-1.3-0.1H76
				V40.3z"/>
		</g>
		<g>
			<path d="M93.6,49.5h-2.2v-7l-5.9-9.3h2.8l0.1,0.1l4.2,6.9l4.4-7h2.6l-5.9,9.3L93.6,49.5L93.6,49.5z"/>
		</g>
		<g>
			<path d="M70.4,49.5h-9.6V33.3h9.6v2.1H63v4.9v2.1v5h7.4V49.5z"/>
		</g>
	</g>
	<g>
		<g>
			<polygon points="27.1,30.3 39.5,0.2 42.6,0.2 54.5,30.3 50.6,30.3 40.9,4.8 40.9,4.8 30.9,30.3 			"/>
		</g>
		<path d="M81.7,0.2h17.8v3.1H85.1v10.2v3.1V27h14.4v3.1H81.7V0.2z"/>
		<path d="M22.2,6.9c-0.9-1.2-1.9-2-3.2-2.6c-1.3-0.6-2.6-0.9-4-0.9c-1.6,0-3.1,0.3-4.4,1C9.3,5,8.2,5.9,7.2,7s-1.7,2.4-2.3,3.8
			c-0.5,1.4-0.8,2.9-0.8,4.5c0,1.7,0.3,3.2,0.8,4.7c0.5,1.4,1.3,2.7,2.2,3.8c1,1.1,2.1,1.9,3.4,2.5s2.8,0.9,4.4,0.9
			c1.8,0,3.3-0.3,4.7-1s2.6-1.7,3.6-3l2.6,2.1c-1.3,1.7-2.9,3-4.7,3.8c-1.8,0.8-3.9,1.2-6.2,1.2c-2.1,0-4-0.4-5.7-1.1
			C7.5,28.4,6,27.3,4.7,26s-2.3-2.9-3.1-4.7s-1.1-3.8-1.1-6c0-2.1,0.4-4.1,1.1-5.9s1.7-3.4,3-4.8s2.8-2.4,4.6-3.2s3.7-1.2,5.9-1.2
			c1.9,0,3.8,0.3,5.6,1C22.5,2,24,3.1,25.2,4.7L22.2,6.9z"/>
		<path d="M78.5,27.6c-1.6,0.9-3.3,1.6-5.1,2c-1.8,0.4-3.6,0.6-5.4,0.6c-2.2,0-4.2-0.4-6-1.1s-3.4-1.7-4.7-3.1
			c-1.3-1.3-2.4-2.9-3.1-4.7c-0.7-1.8-1.1-3.9-1.1-6.1c0-2.3,0.4-4.3,1.2-6.2s1.9-3.4,3.2-4.7c1.4-1.3,3-2.3,4.8-3
			C64,0.6,66,0.2,68.1,0.2c1.8,0,3.6,0.3,5.3,0.8c1.7,0.7,3.2,1.6,4.6,3l-2.5,2.7c-0.9-1-2.1-1.9-3.5-2.4c-1.4-0.6-2.7-0.8-4.2-0.8
			c-1.6,0-3.1,0.3-4.5,0.9s-2.6,1.4-3.6,2.5c-1,1-1.8,2.3-2.4,3.8c-0.6,1.5-0.8,3-0.8,4.8c0,1.7,0.3,3.3,0.8,4.7
			c0.6,1.5,1.4,2.7,2.4,3.8c1,1.1,2.2,1.9,3.7,2.5c1.5,0.6,3,0.9,4.7,0.9c1.1,0,2.3-0.1,3.6-0.4s2.4-0.7,3.4-1.2v-8.7h3.3L78.5,27.6
			L78.5,27.6z"/>
	</g>
</g>
</svg>
