<?xml version="1.0" encoding="utf-8"?>
<!-- Generator: Adobe Illustrator 18.0.0, SVG Export Plug-In . SVG Version: 6.00 Build 0)  -->
<!DOCTYPE svg PUBLIC "-//W3C//DTD SVG 1.1//EN" "http://www.w3.org/Graphics/SVG/1.1/DTD/svg11.dtd">
<svg version="1.1" id="レイヤー_1" xmlns="http://www.w3.org/2000/svg" xmlns:xlink="http://www.w3.org/1999/xlink" x="0px"
	 y="0px" viewBox="0 0 100 63" enable-background="new 0 0 100 63" xml:space="preserve">
<g>
	<g>
		<g>
			<path d="M28,32h-1.6L23,23.5L19.5,32h-1.6l4.5-10.5h1.3L28,32z"/>
		</g>
	</g>
	<g>
		<path d="M12.4,32c-0.8,0-1.5-0.1-2.2-0.4c-0.7-0.3-1.3-0.6-1.7-1.1c-0.5-0.5-0.9-1-1.1-1.7C7.1,28.2,7,27.4,7,26.7
			c0-0.8,0.1-1.5,0.4-2.2c0.3-0.6,0.7-1.2,1.2-1.7s1.1-0.8,1.8-1.1c0.7-0.3,1.4-0.4,2.2-0.4c0.7,0,1.3,0.1,1.9,0.3
			c0.6,0.2,1.2,0.5,1.7,1l0.1,0.1l-1.1,1.1L15,23.9c-0.3-0.3-0.7-0.6-1.2-0.8c-1-0.4-2.1-0.4-3,0c-0.5,0.2-0.9,0.5-1.3,0.8
			c-0.4,0.3-0.6,0.8-0.8,1.3s-0.3,1-0.3,1.6s0.1,1.1,0.3,1.6s0.5,0.9,0.8,1.3c0.4,0.4,0.8,0.6,1.3,0.8c0.8,0.3,1.8,0.4,2.9,0.2
			c0.4-0.1,0.8-0.2,1.1-0.4v-2.8h1.4v3.7h-0.1c-0.6,0.3-1.2,0.6-1.9,0.7C13.7,31.9,13,32,12.4,32z"/>
	</g>
	<g>
		<path d="M35.9,32h-5.7V21.5h1.4v9.1h4.3V32z"/>
	</g>
	<g>
		<path d="M43.8,32h-5.7V21.5h1.4v9.1h4.3V32z"/>
	</g>
	<g>
		<path d="M61.6,32h-1.7l-2.7-4.6h-1.4V32h-1.4V21.5H57c0.5,0,1,0,1.5,0.1s0.9,0.2,1.3,0.4c0.4,0.2,0.7,0.5,1,0.9
			c0.2,0.4,0.4,0.9,0.4,1.6c0,0.8-0.2,1.4-0.7,1.9c-0.4,0.4-1,0.7-1.7,0.9L61.6,32z M55.8,26h1c0.3,0,0.7,0,1,0s0.7-0.1,1-0.2
			s0.5-0.3,0.7-0.5s0.3-0.5,0.3-0.9c0-0.3-0.1-0.6-0.2-0.8c-0.1-0.2-0.3-0.4-0.5-0.5s-0.5-0.2-0.7-0.2c-0.3,0-0.6-0.1-0.9-0.1h-1.6
			L55.8,26L55.8,26z"/>
	</g>
	<g>
		<path d="M67.2,32h-1.4v-4.5l-3.9-6h1.8v0.1l2.7,4.5l2.9-4.5H71l-3.8,6V32z"/>
	</g>
	<g>
		<path d="M52.2,32H46V21.5h6.2v1.4h-4.8v3.2v1.4v3.3h4.8V32z"/>
	</g>
	<path d="M61.7,8.7V2.1H71v-2H59.5v8.6H43.3c0.1-0.7,0.2-1.4,0.5-2c0.4-0.9,0.9-1.8,1.5-2.4c0.7-0.7,1.5-1.2,2.3-1.6
		c0.9-0.4,1.9-0.6,2.9-0.6c0.9,0,1.8,0.2,2.7,0.5c0.9,0.4,1.6,0.9,2.2,1.6L57,2.5c-0.9-0.9-1.9-1.5-3-1.9s-2.2-0.5-3.4-0.5
		c-1.4,0-2.6,0.2-3.8,0.7s-2.2,1.1-3.1,2c-0.8,0.8-1.5,1.8-2,3c-0.4,0.9-0.6,1.8-0.7,2.9h-3.4l-3.4-8.6h-2l-3.5,8.6H9.3
		c0.1-0.6,0.2-1.2,0.4-1.8C10,6,10.5,5.1,11.2,4.4c0.6-0.7,1.4-1.3,2.2-1.7c0.9-0.4,1.8-0.6,2.8-0.6c0.9,0,1.7,0.2,2.6,0.6
		c0.9,0.4,1.6,0.9,2.2,1.7L22.9,3c-0.8-1-1.8-1.8-2.9-2.2c-1.2-0.5-2.4-0.7-3.6-0.7c-1.4,0-2.6,0.3-3.8,0.8s-2.1,1.2-3,2.1
		c-0.8,0.9-1.5,1.9-2,3.1C7.3,6.9,7,7.8,7,8.7H0.2v53.4h99.7V8.7H61.7z M55.2,10.8v5.7c-0.7,0.3-1.4,0.6-2.2,0.8
		c-0.8,0.2-1.6,0.3-2.3,0.3c-1.1,0-2.1-0.2-3-0.6s-1.7-0.9-2.4-1.6c-0.7-0.7-1.2-1.5-1.5-2.4c-0.3-0.7-0.4-1.4-0.5-2.1L55.2,10.8
		L55.2,10.8z M33.1,3.1l2.1,5.6h-4.4L33.1,3.1z M97.8,60H2.2V10.8h4.7c0.1,1,0.3,2,0.7,2.9c0.5,1.2,1.1,2.2,2,3.1
		c0.8,0.9,1.8,1.5,3,2s2.4,0.7,3.7,0.7c1.5,0,2.8-0.3,4-0.8s2.2-1.3,3-2.5l-1.7-1.4c-0.7,0.8-1.4,1.5-2.3,1.9s-1.9,0.7-3,0.7
		c-1,0-2-0.2-2.9-0.6s-1.6-0.9-2.2-1.6c-0.6-0.7-1.1-1.5-1.5-2.4c-0.2-0.7-0.4-1.3-0.5-2.1h18.4L24,19.5h2.4l3.5-8.8h6l3.3,8.8h2.5
		l-3.5-8.8H41c0.1,1.1,0.3,2.1,0.7,3c0.5,1.2,1.1,2.2,2,3.1c0.9,0.9,1.9,1.5,3.1,2c1.2,0.5,2.5,0.7,3.9,0.7c1.2,0,2.3-0.1,3.5-0.4
		s2.2-0.7,3.3-1.3v-7h2.1v8.8H71v-2h-9.4v-6.7h36.1V60H97.8z"/>
</g>
</svg>
