<?xml version="1.0" encoding="utf-8"?>
<!-- Generator: Adobe Illustrator 18.0.0, SVG Export Plug-In . SVG Version: 6.00 Build 0)  -->
<!DOCTYPE svg PUBLIC "-//W3C//DTD SVG 1.1//EN" "http://www.w3.org/Graphics/SVG/1.1/DTD/svg11.dtd">
<svg version="1.1" id="レイヤー_1" xmlns="http://www.w3.org/2000/svg" xmlns:xlink="http://www.w3.org/1999/xlink" x="0px"
	 y="0px" viewBox="0 0 36.3 9.5" enable-background="new 0 0 36.3 9.5" xml:space="preserve">
<g>
	<path d="M0,9.3V0h1.9l2.2,6.6C4.3,7.2,4.4,7.7,4.5,8C4.6,7.6,4.8,7.1,5,6.5L7.2,0h1.7v9.3H7.7V1.5L5,9.3H3.9L1.2,1.4v7.9H0z"/>
	<path d="M10.9,9.3V0h6.7v1.1h-5.5v2.9h5.1V5h-5.1v3.2h5.7v1.1H10.9z"/>
	<path d="M19.5,9.3V0h1.3l4.9,7.3V0h1.2v9.3h-1.3L20.7,2v7.3H19.5z"/>
	<path d="M35,0h1.2v5.4c0,0.9-0.1,1.7-0.3,2.2s-0.6,1-1.1,1.3c-0.6,0.3-1.3,0.5-2.2,0.5c-0.9,0-1.6-0.2-2.1-0.5s-1-0.7-1.2-1.3
		c-0.2-0.6-0.4-1.3-0.4-2.3V0h1.2v5.4c0,0.8,0.1,1.4,0.2,1.8c0.2,0.4,0.4,0.7,0.8,0.9c0.4,0.2,0.8,0.3,1.3,0.3
		c0.9,0,1.6-0.2,1.9-0.6S35,6.5,35,5.4V0z"/>
</g>
</svg>
